<svg
    width="500" height="500"
    viewBox="0 0 500 500"
    xmlns="http://www.w3.org/2000/svg"
    xmlns:xlink="http://www.w3.org/1999/xlink">

    <defs>  
        <radialGradient id="grad1">
            <stop 
                offset="40%" 
                stop-color="yellow" />
            <stop 
                offset="100%" 
                stop-color="#00BFFF" />
        </radialGradient>
        <g id="sky">
            <rect x="0" y="0" height="500" width="500" stroke-linecap="square"
            style="fill:#00BFFF"/>
            <circle cx="440" cy="60" r="60" stroke-linecap="round"
            style="fill:url(#grad1)"/>
        </g>
        <g id="mountain">
            <path fill="#744e1c" d="
            M 0 0
            L 0 500
            L 150 500
            Q 100 400 150 220
            Q 110 140 180 60
            L 150 0
            "/>
            <path fill="#744e1c"  d="
            M 100 350
            L 150 420
            L 90 470
            " />
            <path fill="#744e1c" d="
            M 90 130
            L 150 100
            L 150 150
            "/>
            <!--Texturas-->
            <path fill="#5C3317" d="
                M 20 0 
                L 55 120
                L 120 0
                L 110 0
                L 60 70
                L 30 0
                M 20 500
                L 30  200
                L 50 350 
                L 25 500
                M 115 500 
                L 105 400 
                L 130 500
                M 60 500 
                L 90 250 
                L 85 450 
                L 75 500
                M 80 200
                L 70 300
                L 60 200
                L 50 150
                Z
            " />
        </g>
        <g id="human">
            <!--Cabeça-->
            <circle cx = "300" cy = "105" r = "40" stroke-linecap="round"
            style="fill:yellow"/>
            <!--olho-->
            <circle cx = "280" cy = "95" r = "5" stroke-linecap="round"
            style="fill:black"/>
            <!--boca-->
                <path fill="pink"  d=" 
                    M 261 115
                    Q 270 120 280 115
                    Q 270 115 260 110
                    
                " />
            <!--Pescoço-->
            <line x1="290" y1="140" x2="285" y2="175" stroke-linecap="round"
            style="stroke:yellow; stroke-width:25"/>
            <!--Capacete-->
            <path fill="blue" d="
            M 270 70
            L 345 125
            Q 350 85 330 70
            Q 300 50 270 70
            "/>
            <line x1="310" y1="90" x2="275" y2="130" stroke-linecap="round"
            style="stroke:blue; stroke-width:10"/>
            <!--Pernas-->
            <line x1="150" y1="410" x2="170" y2="300" stroke-linecap="round"
            style="stroke:yellow; stroke-width:28"/>
            <line x1="170" y1="300" x2="220" y2="300" stroke-linecap="round"
            style="stroke:yellow; stroke-width:28"/>
            <line x1="220" y1="360" x2="200" y2="385" stroke-linecap="round"
            style="stroke:yellow; stroke-width:28"/>
            <line x1="200" y1="385" x2="200" y2="470" stroke-linecap="round"
            style="stroke:yellow; stroke-width:28"/>
            <!--Sapatos-->
            <line x1="130" y1="400" x2="155" y2="415" stroke-linecap="round"
            style="stroke:blue; stroke-width:30"/>
            <line x1="205" y1="470" x2="180" y2="470" stroke-linecap="round"
            style="stroke:blue; stroke-width:30"/>
            <!--Braço direito-->
            <line x1="270" y1="170" x2="170" y2="75" stroke-linecap="round"
            style="stroke:yellow; stroke-width:28"/>
            <!--Blusa-->
            <line x1="270" y1="275" x2="285" y2="175" stroke-linecap="round"
            style="stroke:orange; stroke-width:50"/>
            <!--Calções-->
            <line x1="200" y1="300" x2="250" y2="300" 
            style="stroke:grey; stroke-width:38"/>
            <line x1="200" y1="300" x2="260" y2="300" 
            style="stroke:grey; stroke-width:38" transform="translate(-140,320), rotate(-50) " />
            <path fill="grey" d="
                M 250 282.5
                L 294 282.5
                Q 290 305 268 330
                L 250 325
            " />
            <line x1="260" y1="280" x2="295" y2="230" stroke-linecap="round"
            style="stroke:brown; stroke-width:10"/>
            <path fill="silver" transform="translate(-5,0)" d="
                M 270 225
                Q 295 230 320 250
                M 270 225
                Q 305 220 320 250

            "/>
            <path fill="blue"  d="
                M 247 250 
                L 298 260 
                L 300 250
                L 248 240
                L 247 250 
                Q 190 240 180 200
                L 150 90
                L 160 80
                L 160 90
                L 190 190
                Q 200 230 248 240
            "/>
            <!--Braço esquerdo-->
            <line x1="280" y1="170" x2="230" y2="230" stroke-linecap="round"
            style="stroke:yellow; stroke-width:28"/>
            <line x1="230" y1="230" x2="170" y2="210" stroke-linecap="round"
            style="stroke:yellow; stroke-width:28"/>
            <!--Mangas-->
            <path fill="orange" 
            transform="translate(277,150), rotate(40)"
            d="
                M 0 40
                L 0 5 
                Q 0 0 15 -10
                Q 30 0 30 5
                L 30 40
                L 0 40
            " />  
        </g>
        <g id="rightHand">

            <line x1="170" y1="210" x2="150" y2="200" stroke-linecap="round"
            style="stroke:yellow; stroke-width:32"/>
            <line x1="180" y1="210" x2="170" y2="180" stroke-linecap="round"
            style="stroke:yellow; stroke-width:12"/>

        </g>
        <g id="rocks">
            <path fill="#786D5F" d="
            M 350 250
            L 350 250
            Q 420 250 400 220
            L 370 220
            L 360 230
            " />
            <circle cx="420" cy="400" r="5" stroke-linecap="round"
            style="fill:#786D5F"/>
            <circle cx="440" cy="160" r="7" stroke-linecap="round"
            style="fill:#786D5F"/>
        </g>

        
    </defs> 
     <use xlink:href="#sky"/>
     <use xlink:href="#human"/>
     <use xlink:href="#mountain"/>
      <use xlink:href="#rigthHand"/>
     <use xlink:href="#rocks"/>
     <use xlink:href="#rocks" transform="translate(30,500)" /> 

       <animateTransform 
        xlink:href="#rocks"
		attributeName="transform"
		attributeType="XML"
		type="translate"
		from=" 0 -200"
		to=" 0 500"
		dur="2s"
		begin="0s"
		repeatCount="indefinite"
		fill="freeze"/>
  
</svg>